<svg xmlns="http://www.w3.org/2000/svg" viewBox="0 0 1200 1600" preserveAspectRatio="xMidYMid slice" fill="none">
<defs><radialGradient id="fade" cx="50%" cy="42%" r="72%">
<stop offset="0%" stop-color="#000"/><stop offset="34%" stop-color="#000"/>
<stop offset="62%" stop-color="#7a7a7a"/><stop offset="100%" stop-color="#fff"/></radialGradient>
<mask id="m"><rect width="1200" height="1600" fill="url(#fade)"/></mask>
<filter id="soft"><feGaussianBlur stdDeviation="0.6"/></filter></defs>
<g mask="url(#m)" filter="url(#soft)" stroke-linecap="round">
<path d="M-60.0,44.7C-52.3,43.6 -29.3,43.3 -14.0,38.0C1.3,32.7 16.7,23.8 32.0,13.0C47.3,2.1 62.7,-12.2 78.0,-27.0C93.3,-41.8 108.7,-59.3 124.0,-75.6C139.3,-91.9 154.7,-109.7 170.0,-124.9C185.3,-140.1 200.7,-155.2 216.0,-166.8C231.3,-178.4 246.7,-188.3 262.0,-194.4C277.3,-200.5 292.7,-203.6 308.0,-203.3C323.3,-203.0 338.7,-199.0 354.0,-192.5C369.3,-186.0 384.7,-175.8 400.0,-164.4C415.3,-153.1 430.7,-138.5 446.0,-124.4C461.3,-110.4 476.7,-94.2 492.0,-80.0C507.3,-65.9 522.7,-51.1 538.0,-39.4C553.3,-27.6 568.7,-16.9 584.0,-9.6C599.3,-2.4 614.7,2.5 630.0,4.0C645.3,5.6 660.7,3.8 676.0,-0.4C691.3,-4.6 706.7,-12.4 722.0,-21.4C737.3,-30.4 752.7,-42.5 768.0,-54.4C783.3,-66.2 798.7,-80.2 814.0,-92.4C829.3,-104.6 844.7,-117.6 860.0,-127.6C875.3,-137.6 890.7,-146.9 906.0,-152.6C921.3,-158.3 936.7,-161.8 952.0,-161.7C967.3,-161.7 982.7,-158.5 998.0,-152.5C1013.3,-146.5 1028.7,-136.9 1044.0,-125.7C1059.3,-114.6 1074.7,-100.1 1090.0,-85.5C1105.3,-71.0 1120.7,-54.0 1136.0,-38.6C1151.3,-23.2 1166.7,-6.6 1182.0,7.0C1197.3,20.7 1220.3,37.3 1228.0,43.3" stroke="rgba(51,185,106,0.47)" stroke-width="1.03"/>
<path d="M-60.0,132.2C-52.3,129.1 -29.3,123.7 -14.0,113.7C1.3,103.8 16.7,88.6 32.0,72.5C47.3,56.3 62.7,35.8 78.0,16.7C93.3,-2.3 108.7,-23.9 124.0,-41.8C139.3,-59.8 154.7,-77.8 170.0,-90.7C185.3,-103.6 200.7,-114.2 216.0,-119.2C231.3,-124.3 246.7,-125.0 262.0,-120.9C277.3,-116.7 292.7,-107.2 308.0,-94.5C323.3,-81.8 338.7,-63.7 354.0,-44.8C369.3,-25.8 384.7,-2.6 400.0,19.0C415.3,40.6 430.7,64.5 446.0,84.7C461.3,104.9 476.7,125.0 492.0,140.1C507.3,155.2 522.7,167.8 538.0,175.3C553.3,182.8 568.7,186.0 584.0,185.0C599.3,184.0 614.7,177.8 630.0,169.4C645.3,160.9 660.7,147.5 676.0,134.1C691.3,120.8 706.7,103.9 722.0,89.3C737.3,74.8 752.7,58.7 768.0,46.9C783.3,35.1 798.7,24.2 814.0,18.4C829.3,12.5 844.7,9.9 860.0,12.1C875.3,14.2 890.7,21.1 906.0,31.5C921.3,41.9 936.7,57.5 952.0,74.6C967.3,91.6 982.7,113.2 998.0,133.8C1013.3,154.4 1028.7,177.9 1044.0,198.1C1059.3,218.4 1074.7,239.2 1090.0,255.1C1105.3,271.0 1120.7,285.0 1136.0,293.5C1151.3,301.9 1166.7,306.4 1182.0,305.9C1197.3,305.3 1220.3,292.7 1228.0,290.1" stroke="rgba(45,209,196,0.45)" stroke-width="1.42"/>
<path d="M-60.0,103.5C-52.3,97.6 -29.3,77.1 -14.0,68.1C1.3,59.0 16.7,52.0 32.0,49.2C47.3,46.3 62.7,47.0 78.0,51.1C93.3,55.2 108.7,63.6 124.0,73.7C139.3,83.9 154.7,98.2 170.0,112.3C185.3,126.4 200.7,143.5 216.0,158.5C231.3,173.5 246.7,189.7 262.0,202.2C277.3,214.7 292.7,226.5 308.0,233.7C323.3,240.8 338.7,245.3 354.0,245.4C369.3,245.4 384.7,241.4 400.0,233.8C415.3,226.3 430.7,214.1 446.0,200.1C461.3,186.2 476.7,167.9 492.0,149.9C507.3,131.9 522.7,110.9 538.0,92.1C553.3,73.3 568.7,53.4 584.0,37.1C599.3,20.9 614.7,5.5 630.0,-5.3C645.3,-16.2 660.7,-24.3 676.0,-28.2C691.3,-32.0 706.7,-31.8 722.0,-28.4C737.3,-25.0 752.7,-17.1 768.0,-7.8C783.3,1.6 798.7,14.9 814.0,27.7C829.3,40.5 844.7,56.0 860.0,69.1C875.3,82.2 890.7,96.0 906.0,106.2C921.3,116.4 936.7,125.3 952.0,130.0C967.3,134.7 982.7,136.5 998.0,134.5C1013.3,132.5 1028.7,126.4 1044.0,117.8C1059.3,109.2 1074.7,96.4 1090.0,82.8C1105.3,69.2 1120.7,52.2 1136.0,36.4C1151.3,20.6 1166.7,2.8 1182.0,-11.9C1197.3,-26.6 1220.3,-45.3 1228.0,-51.9" stroke="rgba(96,150,255,0.53)" stroke-width="1.56"/>
<path d="M-60.0,176.7C-52.3,170.7 -29.3,150.0 -14.0,140.7C1.3,131.5 16.7,124.1 32.0,121.0C47.3,117.9 62.7,118.1 78.0,122.2C93.3,126.2 108.7,134.4 124.0,145.4C139.3,156.4 154.7,171.6 170.0,188.1C185.3,204.5 200.7,224.6 216.0,244.1C231.3,263.6 246.7,285.5 262.0,305.1C277.3,324.7 292.7,345.1 308.0,361.7C323.3,378.3 338.7,393.9 354.0,405.0C369.3,416.0 384.7,424.4 400.0,428.1C415.3,431.8 430.7,431.6 446.0,427.4C461.3,423.2 476.7,414.4 492.0,403.0C507.3,391.5 522.7,375.5 538.0,358.6C553.3,341.7 568.7,321.1 584.0,301.4C599.3,281.8 614.7,259.8 630.0,240.4C645.3,221.1 660.7,201.2 676.0,185.2C691.3,169.1 706.7,154.5 722.0,144.2C737.3,133.9 752.7,126.6 768.0,123.6C783.3,120.6 798.7,121.7 814.0,126.2C829.3,130.8 844.7,139.8 860.0,150.9C875.3,162.0 890.7,177.3 906.0,192.9C921.3,208.6 936.7,227.4 952.0,244.8C967.3,262.3 982.7,281.3 998.0,297.5C1013.3,313.7 1028.7,329.7 1044.0,341.9C1059.3,354.1 1074.7,364.4 1090.0,370.5C1105.3,376.5 1120.7,379.4 1136.0,378.4C1151.3,377.4 1166.7,372.3 1182.0,364.4C1197.3,356.5 1220.3,336.7 1228.0,331.2" stroke="rgba(140,110,246,0.42)" stroke-width="2.08"/>
<path d="M-60.0,334.5C-52.3,341.6 -29.3,365.3 -14.0,377.5C1.3,389.7 16.7,401.2 32.0,407.7C47.3,414.2 62.7,417.7 78.0,416.6C93.3,415.4 108.7,409.7 124.0,400.8C139.3,392.0 154.7,378.1 170.0,363.6C185.3,349.0 200.7,330.3 216.0,313.3C231.3,296.4 246.7,277.3 262.0,261.9C277.3,246.5 292.7,231.5 308.0,221.1C323.3,210.7 338.7,203.0 354.0,199.7C369.3,196.3 384.7,197.2 400.0,200.9C415.3,204.6 430.7,213.0 446.0,221.9C461.3,230.9 476.7,243.6 492.0,254.5C507.3,265.4 522.7,278.2 538.0,287.2C553.3,296.2 568.7,304.8 584.0,308.6C599.3,312.5 614.7,313.6 630.0,310.4C645.3,307.3 660.7,299.8 676.0,289.7C691.3,279.6 706.7,264.9 722.0,249.8C737.3,234.8 752.7,216.0 768.0,199.4C783.3,182.9 798.7,164.5 814.0,150.3C829.3,136.1 844.7,122.7 860.0,114.2C875.3,105.8 890.7,100.4 906.0,99.6C921.3,98.9 936.7,102.7 952.0,109.6C967.3,116.5 982.7,128.4 998.0,140.9C1013.3,153.4 1028.7,170.1 1044.0,184.8C1059.3,199.6 1074.7,216.5 1090.0,229.5C1105.3,242.6 1120.7,255.3 1136.0,263.2C1151.3,271.1 1166.7,276.2 1182.0,277.0C1197.3,277.8 1220.3,269.3 1228.0,267.7" stroke="rgba(51,185,106,0.52)" stroke-width="0.99"/>
<path d="M-60.0,337.1C-52.3,335.5 -29.3,329.3 -14.0,327.9C1.3,326.5 16.7,326.9 32.0,328.7C47.3,330.5 62.7,334.1 78.0,338.7C93.3,343.3 108.7,349.5 124.0,356.3C139.3,363.0 154.7,371.1 170.0,379.0C185.3,386.9 200.7,395.8 216.0,403.9C231.3,412.1 246.7,420.6 262.0,427.8C277.3,435.1 292.7,442.2 308.0,447.6C323.3,453.0 338.7,457.6 354.0,460.4C369.3,463.1 384.7,464.6 400.0,464.1C415.3,463.7 430.7,461.6 446.0,457.7C461.3,453.8 476.7,448.0 492.0,440.8C507.3,433.6 522.7,424.5 538.0,414.4C553.3,404.2 568.7,392.4 584.0,380.1C599.3,367.8 614.7,354.2 630.0,340.6C645.3,327.1 660.7,312.7 676.0,299.1C691.3,285.4 706.7,271.5 722.0,258.8C737.3,246.1 752.7,233.6 768.0,222.9C783.3,212.2 798.7,202.3 814.0,194.4C829.3,186.5 844.7,179.9 860.0,175.3C875.3,170.7 890.7,167.9 906.0,166.9C921.3,166.0 936.7,167.0 952.0,169.5C967.3,172.0 982.7,176.5 998.0,182.1C1013.3,187.7 1028.7,195.2 1044.0,203.1C1059.3,211.1 1074.7,220.5 1090.0,229.9C1105.3,239.2 1120.7,249.6 1136.0,259.3C1151.3,269.0 1166.7,279.2 1182.0,288.2C1197.3,297.2 1220.3,309.1 1228.0,313.2" stroke="rgba(45,209,196,0.36)" stroke-width="1.68"/>
<path d="M-60.0,416.4C-52.3,426.4 -29.3,456.3 -14.0,476.9C1.3,497.5 16.7,521.0 32.0,539.9C47.3,558.8 62.7,577.5 78.0,590.1C93.3,602.7 108.7,612.1 124.0,615.5C139.3,619.0 154.7,616.9 170.0,610.6C185.3,604.3 200.7,591.8 216.0,577.7C231.3,563.6 246.7,544.0 262.0,526.0C277.3,508.1 292.7,486.8 308.0,469.8C323.3,452.7 338.7,435.4 354.0,423.8C369.3,412.1 384.7,403.2 400.0,399.9C415.3,396.5 430.7,398.2 446.0,403.7C461.3,409.2 476.7,420.5 492.0,433.0C507.3,445.5 522.7,463.1 538.0,478.7C553.3,494.3 568.7,512.9 584.0,526.9C599.3,540.9 614.7,554.8 630.0,562.7C645.3,570.7 660.7,575.5 676.0,574.5C691.3,573.6 706.7,567.3 722.0,556.8C737.3,546.4 752.7,529.8 768.0,511.9C783.3,493.9 798.7,470.6 814.0,449.1C829.3,427.6 844.7,403.0 860.0,382.9C875.3,362.7 890.7,342.5 906.0,328.4C921.3,314.3 936.7,303.2 952.0,298.2C967.3,293.2 982.7,293.5 998.0,298.5C1013.3,303.4 1028.7,314.6 1044.0,327.7C1059.3,340.8 1074.7,359.6 1090.0,377.1C1105.3,394.7 1120.7,415.8 1136.0,432.9C1151.3,450.0 1166.7,467.7 1182.0,479.8C1197.3,491.9 1220.3,501.3 1228.0,505.5" stroke="rgba(96,150,255,0.30)" stroke-width="1.79"/>
<path d="M-60.0,583.0C-52.3,590.3 -29.3,612.6 -14.0,626.5C1.3,640.5 16.7,654.6 32.0,666.8C47.3,678.9 62.7,690.3 78.0,699.3C93.3,708.3 108.7,715.9 124.0,720.8C139.3,725.6 154.7,728.4 170.0,728.7C185.3,728.9 200.7,726.6 216.0,722.1C231.3,717.6 246.7,710.5 262.0,701.7C277.3,692.9 292.7,681.6 308.0,669.4C323.3,657.2 338.7,642.9 354.0,628.5C369.3,614.2 384.7,598.3 400.0,583.1C415.3,568.0 430.7,552.2 446.0,537.8C461.3,523.4 476.7,509.2 492.0,496.9C507.3,484.7 522.7,473.4 538.0,464.4C553.3,455.5 568.7,448.2 584.0,443.2C599.3,438.3 614.7,435.6 630.0,435.0C645.3,434.4 660.7,436.2 676.0,439.8C691.3,443.3 706.7,449.3 722.0,456.3C737.3,463.3 752.7,472.5 768.0,481.9C783.3,491.3 798.7,502.4 814.0,512.9C829.3,523.4 844.7,534.8 860.0,545.0C875.3,555.1 890.7,565.4 906.0,573.7C921.3,582.0 936.7,589.6 952.0,594.9C967.3,600.1 982.7,604.0 998.0,605.3C1013.3,606.6 1028.7,605.8 1044.0,602.7C1059.3,599.6 1074.7,594.0 1090.0,586.5C1105.3,578.9 1120.7,568.8 1136.0,557.3C1151.3,545.8 1166.7,532.0 1182.0,517.5C1197.3,503.0 1220.3,478.2 1228.0,470.4" stroke="rgba(140,110,246,0.44)" stroke-width="2.06"/>
<path d="M-60.0,543.3C-52.3,545.9 -29.3,551.3 -14.0,558.6C1.3,565.9 16.7,576.1 32.0,587.3C47.3,598.4 62.7,612.0 78.0,625.4C93.3,638.9 108.7,654.0 124.0,668.0C139.3,682.0 154.7,696.8 170.0,709.6C185.3,722.3 200.7,734.8 216.0,744.7C231.3,754.5 246.7,763.1 262.0,768.7C277.3,774.3 292.7,777.8 308.0,778.3C323.3,778.9 338.7,776.7 354.0,772.0C369.3,767.3 384.7,759.6 400.0,750.0C415.3,740.4 430.7,727.9 446.0,714.4C461.3,700.9 476.7,685.0 492.0,669.1C507.3,653.2 522.7,635.6 538.0,619.0C553.3,602.5 568.7,585.2 584.0,569.9C599.3,554.5 614.7,539.5 630.0,527.2C645.3,514.8 660.7,503.8 676.0,495.9C691.3,488.0 706.7,482.3 722.0,479.8C737.3,477.3 752.7,477.7 768.0,481.0C783.3,484.3 798.7,490.8 814.0,499.6C829.3,508.4 844.7,520.4 860.0,533.8C875.3,547.3 890.7,563.6 906.0,580.3C921.3,597.0 936.7,615.9 952.0,634.2C967.3,652.5 982.7,672.0 998.0,689.9C1013.3,707.8 1028.7,726.0 1044.0,741.7C1059.3,757.5 1074.7,772.4 1090.0,784.4C1105.3,796.4 1120.7,806.7 1136.0,813.8C1151.3,821.0 1166.7,825.6 1182.0,827.4C1197.3,829.1 1220.3,824.9 1228.0,824.3" stroke="rgba(51,185,106,0.65)" stroke-width="0.89"/>
<path d="M-60.0,696.4C-52.3,714.0 -29.3,768.7 -14.0,802.4C1.3,836.1 16.7,874.1 32.0,898.7C47.3,923.3 62.7,943.4 78.0,950.1C93.3,956.8 108.7,951.8 124.0,938.8C139.3,925.7 154.7,898.6 170.0,871.8C185.3,844.9 200.7,807.1 216.0,777.7C231.3,748.2 246.7,715.2 262.0,695.1C277.3,674.9 292.7,659.8 308.0,656.5C323.3,653.2 338.7,661.4 354.0,675.5C369.3,689.6 384.7,716.6 400.0,741.0C415.3,765.5 430.7,798.9 446.0,822.2C461.3,845.6 476.7,870.1 492.0,881.3C507.3,892.4 522.7,896.4 538.0,889.1C553.3,881.8 568.7,861.9 584.0,837.6C599.3,813.3 614.7,776.1 630.0,743.3C645.3,710.4 660.7,669.8 676.0,640.6C691.3,611.5 706.7,582.8 722.0,568.4C737.3,553.9 752.7,548.3 768.0,553.9C783.3,559.4 798.7,578.7 814.0,601.8C829.3,625.0 844.7,661.2 860.0,692.7C875.3,724.1 890.7,763.0 906.0,790.5C921.3,818.0 936.7,844.4 952.0,857.6C967.3,870.9 982.7,875.1 998.0,869.9C1013.3,864.8 1028.7,846.5 1044.0,826.5C1059.3,806.5 1074.7,774.9 1090.0,749.9C1105.3,724.8 1120.7,694.5 1136.0,676.3C1151.3,658.2 1166.7,643.2 1182.0,640.9C1197.3,638.7 1220.3,659.3 1228.0,663.0" stroke="rgba(45,209,196,0.32)" stroke-width="1.70"/>
<path d="M-60.0,947.3C-52.3,941.5 -29.3,926.4 -14.0,912.3C1.3,898.2 16.7,880.7 32.0,862.7C47.3,844.7 62.7,824.1 78.0,804.4C93.3,784.8 108.7,763.6 124.0,744.8C139.3,726.0 154.7,707.1 170.0,691.5C185.3,675.9 200.7,661.6 216.0,651.3C231.3,640.9 246.7,633.1 262.0,629.3C277.3,625.5 292.7,625.2 308.0,628.4C323.3,631.6 338.7,638.7 354.0,648.4C369.3,658.1 384.7,671.6 400.0,686.5C415.3,701.3 430.7,719.4 446.0,737.3C461.3,755.2 476.7,775.4 492.0,794.0C507.3,812.5 522.7,832.0 538.0,848.8C553.3,865.5 568.7,881.7 584.0,894.4C599.3,907.1 614.7,918.0 630.0,925.0C645.3,932.0 660.7,936.1 676.0,936.7C691.3,937.2 706.7,934.1 722.0,928.3C737.3,922.5 752.7,912.9 768.0,901.7C783.3,890.5 798.7,876.0 814.0,861.1C829.3,846.3 844.7,829.0 860.0,812.8C875.3,796.6 890.7,779.1 906.0,764.0C921.3,748.9 936.7,733.9 952.0,722.0C967.3,710.2 982.7,699.9 998.0,693.2C1013.3,686.5 1028.7,682.4 1044.0,681.8C1059.3,681.2 1074.7,684.0 1090.0,689.7C1105.3,695.4 1120.7,704.7 1136.0,715.9C1151.3,727.1 1166.7,741.7 1182.0,756.7C1197.3,771.8 1220.3,798.1 1228.0,806.3" stroke="rgba(96,150,255,0.53)" stroke-width="1.48"/>
<path d="M-60.0,1086.7C-52.3,1091.4 -29.3,1114.0 -14.0,1115.3C1.3,1116.5 16.7,1108.9 32.0,1094.1C47.3,1079.4 62.7,1053.9 78.0,1026.8C93.3,999.8 108.7,963.6 124.0,931.9C139.3,900.2 154.7,863.8 170.0,836.6C185.3,809.4 200.7,783.6 216.0,768.6C231.3,753.6 246.7,745.6 262.0,746.7C277.3,747.9 292.7,759.3 308.0,775.3C323.3,791.3 338.7,817.7 354.0,842.7C369.3,867.7 384.7,899.9 400.0,925.4C415.3,950.8 430.7,978.0 446.0,995.4C461.3,1012.8 476.7,1026.0 492.0,1029.8C507.3,1033.5 522.7,1028.7 538.0,1017.9C553.3,1007.1 568.7,986.3 584.0,965.0C599.3,943.8 614.7,914.4 630.0,890.3C645.3,866.2 660.7,838.7 676.0,820.7C691.3,802.6 706.7,787.0 722.0,781.9C737.3,776.8 752.7,779.4 768.0,790.1C783.3,800.8 798.7,821.9 814.0,846.2C829.3,870.4 844.7,904.5 860.0,935.6C875.3,966.7 890.7,1003.8 906.0,1032.8C921.3,1061.7 936.7,1091.0 952.0,1109.4C967.3,1127.8 982.7,1140.5 998.0,1143.2C1013.3,1145.9 1028.7,1138.8 1044.0,1125.5C1059.3,1112.2 1074.7,1088.1 1090.0,1063.7C1105.3,1039.2 1120.7,1006.2 1136.0,978.6C1151.3,951.0 1166.7,920.0 1182.0,898.2C1197.3,876.4 1220.3,856.2 1228.0,847.8" stroke="rgba(140,110,246,0.30)" stroke-width="0.98"/>
<path d="M-60.0,1096.9C-52.3,1099.3 -29.3,1111.8 -14.0,1111.0C1.3,1110.2 16.7,1103.2 32.0,1092.2C47.3,1081.1 62.7,1062.4 78.0,1044.6C93.3,1026.9 108.7,1003.5 124.0,985.7C139.3,968.0 154.7,949.1 170.0,937.9C185.3,926.7 200.7,919.5 216.0,918.7C231.3,917.9 246.7,924.3 262.0,933.1C277.3,941.8 292.7,957.9 308.0,971.3C323.3,984.6 338.7,1002.1 354.0,1013.2C369.3,1024.4 384.7,1034.7 400.0,1038.0C415.3,1041.2 430.7,1039.3 446.0,1032.9C461.3,1026.6 476.7,1013.1 492.0,1000.0C507.3,986.8 522.7,968.0 538.0,954.1C553.3,940.3 568.7,924.9 584.0,916.9C599.3,909.0 614.7,904.4 630.0,906.3C645.3,908.2 660.7,917.0 676.0,928.3C691.3,939.7 706.7,958.3 722.0,974.3C737.3,990.2 752.7,1010.6 768.0,1024.3C783.3,1038.0 798.7,1051.1 814.0,1056.5C829.3,1061.9 844.7,1061.9 860.0,1056.5C875.3,1051.1 890.7,1038.0 906.0,1024.1C921.3,1010.2 936.7,989.6 952.0,973.1C967.3,956.5 982.7,937.2 998.0,924.9C1013.3,912.6 1028.7,902.6 1044.0,899.3C1059.3,895.9 1074.7,898.7 1090.0,904.7C1105.3,910.6 1120.7,923.8 1136.0,935.1C1151.3,946.5 1166.7,962.6 1182.0,972.7C1197.3,982.9 1220.3,992.2 1228.0,996.0" stroke="rgba(51,185,106,0.52)" stroke-width="1.20"/>
<path d="M-60.0,1144.0C-52.3,1140.4 -29.3,1130.2 -14.0,1122.0C1.3,1113.7 16.7,1103.7 32.0,1094.6C47.3,1085.5 62.7,1075.6 78.0,1067.6C93.3,1059.7 108.7,1052.0 124.0,1046.9C139.3,1041.7 154.7,1038.0 170.0,1036.8C185.3,1035.6 200.7,1036.6 216.0,1039.6C231.3,1042.6 246.7,1048.2 262.0,1054.7C277.3,1061.3 292.7,1070.2 308.0,1078.9C323.3,1087.6 338.7,1097.9 354.0,1106.8C369.3,1115.8 384.7,1125.2 400.0,1132.5C415.3,1139.8 430.7,1146.3 446.0,1150.4C461.3,1154.4 476.7,1156.7 492.0,1156.7C507.3,1156.7 522.7,1154.3 538.0,1150.3C553.3,1146.3 568.7,1139.8 584.0,1132.8C599.3,1125.8 614.7,1116.7 630.0,1108.3C645.3,1099.9 660.7,1090.3 676.0,1082.4C691.3,1074.5 706.7,1066.5 722.0,1060.8C737.3,1055.1 752.7,1050.5 768.0,1048.3C783.3,1046.0 798.7,1045.8 814.0,1047.3C829.3,1048.9 844.7,1052.8 860.0,1057.7C875.3,1062.6 890.7,1069.7 906.0,1076.5C921.3,1083.4 936.7,1091.8 952.0,1098.8C967.3,1105.8 982.7,1113.4 998.0,1118.7C1013.3,1124.0 1028.7,1128.7 1044.0,1130.8C1059.3,1132.9 1074.7,1133.3 1090.0,1131.3C1105.3,1129.3 1120.7,1124.9 1136.0,1118.9C1151.3,1113.0 1166.7,1104.4 1182.0,1095.4C1197.3,1086.3 1220.3,1069.7 1228.0,1064.6" stroke="rgba(45,209,196,0.61)" stroke-width="1.00"/>
<path d="M-60.0,1369.1C-52.3,1369.0 -29.3,1374.9 -14.0,1368.8C1.3,1362.7 16.7,1349.4 32.0,1332.4C47.3,1315.4 62.7,1291.3 78.0,1266.8C93.3,1242.2 108.7,1212.1 124.0,1185.1C139.3,1158.0 154.7,1128.3 170.0,1104.4C185.3,1080.5 200.7,1057.4 216.0,1041.8C231.3,1026.1 246.7,1014.6 262.0,1010.4C277.3,1006.2 292.7,1008.6 308.0,1016.7C323.3,1024.7 338.7,1040.4 354.0,1058.9C369.3,1077.3 384.7,1102.7 400.0,1127.5C415.3,1152.3 430.7,1181.9 446.0,1207.6C461.3,1233.3 476.7,1260.6 492.0,1281.8C507.3,1303.0 522.7,1322.4 538.0,1334.7C553.3,1347.1 568.7,1354.6 584.0,1355.9C599.3,1357.2 614.7,1351.9 630.0,1342.5C645.3,1333.2 660.7,1316.9 676.0,1299.9C691.3,1282.8 706.7,1260.1 722.0,1240.0C737.3,1219.8 752.7,1196.8 768.0,1179.1C783.3,1161.3 798.7,1144.0 814.0,1133.7C829.3,1123.3 844.7,1116.6 860.0,1116.9C875.3,1117.3 890.7,1123.7 906.0,1135.5C921.3,1147.3 936.7,1166.4 952.0,1188.0C967.3,1209.6 982.7,1237.8 998.0,1265.2C1013.3,1292.6 1028.7,1324.5 1044.0,1352.2C1059.3,1380.0 1074.7,1409.1 1090.0,1431.6C1105.3,1454.2 1120.7,1474.6 1136.0,1487.4C1151.3,1500.3 1166.7,1507.9 1182.0,1508.6C1197.3,1509.3 1220.3,1494.3 1228.0,1491.5" stroke="rgba(96,150,255,0.60)" stroke-width="2.15"/>
<path d="M-60.0,1391.5C-52.3,1399.8 -29.3,1426.6 -14.0,1440.9C1.3,1455.2 16.7,1468.0 32.0,1477.2C47.3,1486.4 62.7,1493.0 78.0,1495.9C93.3,1498.8 108.7,1498.4 124.0,1494.8C139.3,1491.1 154.7,1483.7 170.0,1474.0C185.3,1464.3 200.7,1451.0 216.0,1436.6C231.3,1422.1 246.7,1404.6 262.0,1387.3C277.3,1370.0 292.7,1350.6 308.0,1332.7C323.3,1314.8 338.7,1296.1 354.0,1279.9C369.3,1263.7 384.7,1248.0 400.0,1235.6C415.3,1223.1 430.7,1212.4 446.0,1205.2C461.3,1198.0 476.7,1193.5 492.0,1192.4C507.3,1191.2 522.7,1193.4 538.0,1198.2C553.3,1203.0 568.7,1211.4 584.0,1221.3C599.3,1231.2 614.7,1244.3 630.0,1257.8C645.3,1271.3 660.7,1287.1 676.0,1302.1C691.3,1317.1 706.7,1333.4 722.0,1347.6C737.3,1361.8 752.7,1376.1 768.0,1387.4C783.3,1398.8 798.7,1408.9 814.0,1415.6C829.3,1422.4 844.7,1426.8 860.0,1427.9C875.3,1429.0 890.7,1426.9 906.0,1422.0C921.3,1417.2 936.7,1408.8 952.0,1398.5C967.3,1388.2 982.7,1374.6 998.0,1360.2C1013.3,1345.9 1028.7,1328.8 1044.0,1312.2C1059.3,1295.6 1074.7,1277.3 1090.0,1260.8C1105.3,1244.3 1120.7,1227.3 1136.0,1213.1C1151.3,1198.9 1166.7,1185.6 1182.0,1175.7C1197.3,1165.9 1220.3,1157.7 1228.0,1154.0" stroke="rgba(140,110,246,0.40)" stroke-width="0.93"/>
<path d="M-60.0,1433.7C-52.3,1429.2 -29.3,1418.2 -14.0,1406.6C1.3,1395.1 16.7,1378.6 32.0,1364.5C47.3,1350.3 62.7,1333.4 78.0,1321.5C93.3,1309.5 108.7,1298.2 124.0,1292.7C139.3,1287.3 154.7,1285.5 170.0,1288.9C185.3,1292.3 200.7,1301.3 216.0,1313.0C231.3,1324.7 246.7,1342.2 262.0,1359.1C277.3,1376.0 292.7,1397.1 308.0,1414.5C323.3,1431.9 338.7,1450.4 354.0,1463.5C369.3,1476.5 384.7,1487.4 400.0,1492.7C415.3,1498.0 430.7,1498.5 446.0,1495.3C461.3,1492.0 476.7,1483.0 492.0,1473.2C507.3,1463.3 522.7,1448.5 538.0,1436.1C553.3,1423.7 568.7,1408.9 584.0,1398.7C599.3,1388.6 614.7,1379.2 630.0,1375.3C645.3,1371.4 660.7,1371.1 676.0,1375.3C691.3,1379.4 706.7,1388.8 722.0,1400.0C737.3,1411.2 752.7,1427.5 768.0,1442.3C783.3,1457.1 798.7,1475.1 814.0,1488.8C829.3,1502.5 844.7,1516.3 860.0,1524.3C875.3,1532.3 890.7,1537.3 906.0,1536.9C921.3,1536.4 936.7,1530.7 952.0,1521.8C967.3,1512.8 982.7,1498.0 998.0,1483.1C1013.3,1468.2 1028.7,1448.7 1044.0,1432.4C1059.3,1416.1 1074.7,1398.0 1090.0,1385.2C1105.3,1372.5 1120.7,1361.2 1136.0,1355.8C1151.3,1350.4 1166.7,1349.4 1182.0,1352.7C1197.3,1356.1 1220.3,1372.1 1228.0,1376.0" stroke="rgba(51,185,106,0.60)" stroke-width="2.15"/>
<path d="M-60.0,1528.6C-52.3,1527.2 -29.3,1524.6 -14.0,1520.3C1.3,1516.1 16.7,1509.9 32.0,1503.0C47.3,1496.2 62.7,1487.6 78.0,1479.2C93.3,1470.8 108.7,1461.2 124.0,1452.6C139.3,1444.1 154.7,1435.1 170.0,1427.8C185.3,1420.5 200.7,1413.6 216.0,1408.8C231.3,1404.0 246.7,1400.4 262.0,1398.8C277.3,1397.2 292.7,1397.4 308.0,1399.1C323.3,1400.9 338.7,1404.7 354.0,1409.4C369.3,1414.1 384.7,1420.7 400.0,1427.3C415.3,1433.9 430.7,1441.9 446.0,1449.0C461.3,1456.2 476.7,1464.0 492.0,1470.3C507.3,1476.6 522.7,1482.7 538.0,1486.9C553.3,1491.1 568.7,1494.3 584.0,1495.6C599.3,1497.0 614.7,1496.7 630.0,1494.9C645.3,1493.1 660.7,1489.4 676.0,1484.9C691.3,1480.4 706.7,1474.2 722.0,1467.9C737.3,1461.6 752.7,1454.1 768.0,1447.3C783.3,1440.6 798.7,1433.3 814.0,1427.4C829.3,1421.6 844.7,1416.0 860.0,1412.3C875.3,1408.6 890.7,1405.9 906.0,1405.1C921.3,1404.3 936.7,1405.1 952.0,1407.4C967.3,1409.7 982.7,1413.9 998.0,1418.9C1013.3,1424.0 1028.7,1430.8 1044.0,1437.5C1059.3,1444.3 1074.7,1452.4 1090.0,1459.6C1105.3,1466.9 1120.7,1474.6 1136.0,1480.9C1151.3,1487.1 1166.7,1493.0 1182.0,1497.0C1197.3,1501.0 1220.3,1503.4 1228.0,1504.7" stroke="rgba(45,209,196,0.31)" stroke-width="1.40"/>
<path d="M-60.0,1574.4C-52.3,1565.0 -29.3,1535.7 -14.0,1518.3C1.3,1501.0 16.7,1482.6 32.0,1470.2C47.3,1457.9 62.7,1447.7 78.0,1444.3C93.3,1440.8 108.7,1442.2 124.0,1449.3C139.3,1456.5 154.7,1470.1 170.0,1487.0C185.3,1503.9 200.7,1527.3 216.0,1550.8C231.3,1574.3 246.7,1602.8 262.0,1628.1C277.3,1653.4 292.7,1680.8 308.0,1702.6C323.3,1724.4 338.7,1745.0 354.0,1758.6C369.3,1772.2 384.7,1781.6 400.0,1784.4C415.3,1787.2 430.7,1783.7 446.0,1775.3C461.3,1767.0 476.7,1751.7 492.0,1734.5C507.3,1717.4 522.7,1694.2 538.0,1672.5C553.3,1650.7 568.7,1625.3 584.0,1604.3C599.3,1583.2 614.7,1561.6 630.0,1546.2C645.3,1530.7 660.7,1518.0 676.0,1511.7C691.3,1505.4 706.7,1504.3 722.0,1508.3C737.3,1512.4 752.7,1522.9 768.0,1535.9C783.3,1548.9 798.7,1568.1 814.0,1586.6C829.3,1605.1 844.7,1627.9 860.0,1646.9C875.3,1666.0 890.7,1686.4 906.0,1701.0C921.3,1715.6 936.7,1728.4 952.0,1734.5C967.3,1740.7 982.7,1742.2 998.0,1738.0C1013.3,1733.8 1028.7,1723.3 1044.0,1709.4C1059.3,1695.4 1074.7,1675.1 1090.0,1654.4C1105.3,1633.7 1120.7,1608.1 1136.0,1585.4C1151.3,1562.8 1166.7,1537.8 1182.0,1518.4C1197.3,1499.0 1220.3,1477.4 1228.0,1469.2" stroke="rgba(96,150,255,0.59)" stroke-width="2.14"/>
<path d="M-60.0,1654.6C-52.3,1648.3 -29.3,1627.7 -14.0,1616.7C1.3,1605.7 16.7,1595.3 32.0,1588.6C47.3,1581.9 62.7,1577.4 78.0,1576.5C93.3,1575.6 108.7,1578.1 124.0,1583.3C139.3,1588.5 154.7,1597.6 170.0,1608.0C185.3,1618.5 200.7,1632.4 216.0,1646.0C231.3,1659.7 246.7,1675.8 262.0,1689.9C277.3,1704.1 292.7,1719.2 308.0,1731.0C323.3,1742.8 338.7,1753.8 354.0,1760.8C369.3,1767.8 384.7,1772.4 400.0,1773.1C415.3,1773.7 430.7,1770.8 446.0,1764.8C461.3,1758.8 476.7,1748.8 492.0,1737.0C507.3,1725.3 522.7,1709.8 538.0,1694.3C553.3,1678.8 568.7,1660.6 584.0,1644.1C599.3,1627.6 614.7,1610.0 630.0,1595.3C645.3,1580.6 660.7,1566.6 676.0,1556.2C691.3,1545.8 706.7,1537.7 722.0,1533.2C737.3,1528.7 752.7,1527.5 768.0,1529.2C783.3,1530.9 798.7,1536.5 814.0,1543.5C829.3,1550.6 844.7,1561.2 860.0,1571.6C875.3,1582.1 890.7,1595.0 906.0,1606.2C921.3,1617.4 936.7,1629.6 952.0,1638.7C967.3,1647.9 982.7,1656.4 998.0,1661.2C1013.3,1666.0 1028.7,1668.6 1044.0,1667.6C1059.3,1666.6 1074.7,1662.3 1090.0,1655.3C1105.3,1648.4 1120.7,1637.6 1136.0,1625.7C1151.3,1613.7 1166.7,1598.4 1182.0,1583.4C1197.3,1568.5 1220.3,1544.1 1228.0,1536.2" stroke="rgba(140,110,246,0.59)" stroke-width="1.15"/>
<path d="M120.0,150.0C120.5,150.1 122.0,150.2 122.9,150.4C123.7,150.7 124.5,151.1 125.2,151.5C125.9,152.0 126.5,152.6 126.9,153.3C127.4,153.9 127.8,154.7 128.0,155.5C128.2,156.3 128.3,157.2 128.2,158.1C128.2,158.9 128.0,159.9 127.6,160.8C127.2,161.7 126.7,162.6 126.0,163.5C125.3,164.3 124.4,165.2 123.4,166.0C122.4,166.7 121.3,167.5 120.0,168.1C118.7,168.7 117.3,169.2 115.8,169.6C114.3,170.0 112.6,170.3 110.9,170.4C109.2,170.6 107.4,170.6 105.6,170.4C103.8,170.2 102.0,169.9 100.1,169.4C98.3,168.9 96.4,168.3 94.7,167.4C92.9,166.6 91.1,165.6 89.5,164.5C87.8,163.3 86.3,162.0 84.8,160.5C83.4,159.0 82.1,157.4 81.0,155.6C80.0,153.9 79.0,152.0 78.3,150.0C77.6,148.0 77.1,145.9 76.8,143.8C76.6,141.6 76.6,139.4 76.8,137.1C77.1,134.9 77.6,132.6 78.4,130.3C79.2,128.0 80.2,125.8 81.6,123.6C82.9,121.4 84.5,119.2 86.4,117.2C88.3,115.2 90.5,113.2 92.8,111.4C95.2,109.7 97.9,108.0 100.7,106.5C103.5,105.1 106.6,103.8 109.8,102.8C113.1,101.7 116.5,100.9 120.0,100.4C123.5,99.8 127.2,99.5 130.9,99.4C134.5,99.4 138.4,99.6 142.1,100.2C145.9,100.7 149.7,101.5 153.3,102.6C157.0,103.7 160.7,105.1 164.2,106.8C167.7,108.5 171.1,110.5 174.2,112.7C177.4,114.9 180.4,117.4 183.1,120.1C185.7,122.9 188.2,125.8 190.3,129.0C192.4,132.2 194.3,135.5 195.7,139.0C197.1,142.5 198.2,146.2 198.9,150.0C199.5,153.7 199.8,157.6 199.7,161.5C199.5,165.4 198.9,169.4 197.9,173.2C196.9,177.1 195.4,181.0 193.5,184.8C191.7,188.6 189.3,192.3 186.6,195.8C183.9,199.3 180.7,202.7 177.2,205.8C173.6,209.0 169.7,211.9 165.5,214.5C161.2,217.2 156.6,219.6 151.8,221.6C147.0,223.6 141.8,225.3 136.5,226.6C131.2,227.9 125.6,228.9 120.0,229.4C114.4,230.0 108.6,230.1 102.9,229.8C97.1,229.5 91.2,228.8 85.5,227.7C79.8,226.6 74.1,225.0 68.6,223.0C63.2,221.0 57.7,218.6 52.7,215.8C47.6,213.0 42.7,209.8 38.3,206.3C33.8,202.7 29.6,198.8 25.9,194.6C22.2,190.4 18.8,185.8 16.0,181.1C13.2,176.3 10.9,171.2 9.1,166.1C7.4,160.9 6.1,155.5 5.5,150.0C4.8,144.6 4.7,139.0 5.3,133.4C5.8,127.9 6.9,122.3 8.7,116.8C10.4,111.3 12.8,105.9 15.7,100.7C18.6,95.5 22.2,90.3 26.3,85.5C30.3,80.8 35.0,76.1 40.1,72.0C45.2,67.8 50.9,63.8 56.9,60.4C62.9,56.9 69.4,53.8 76.1,51.3C82.9,48.7 90.1,46.6 97.4,45.0C104.7,43.4 112.3,42.3 120.0,41.8C127.6,41.2 135.5,41.2 143.2,41.8C151.0,42.4 158.8,43.6 166.4,45.3C174.0,47.0 181.6,49.3 188.8,52.1C196.1,55.0 203.2,58.4 209.8,62.2C216.4,66.1 222.7,70.5 228.4,75.3C234.2,80.1 239.6,85.5 244.3,91.1C249.0,96.8 253.2,102.9 256.7,109.2C260.1,115.5 263.0,122.2 265.1,129.0C267.2,135.8 268.6,142.9 269.3,150.0C269.9,157.0 269.8,164.3 268.9,171.5C268.0,178.6 266.3,185.9 263.9,192.9C261.4,199.9 258.2,206.9 254.2,213.5C250.3,220.1 245.6,226.6 240.2,232.6C234.9,238.7 228.7,244.5 222.1,249.7C215.5,254.9 208.1,259.8 200.4,264.1C192.6,268.3 184.3,272.1 175.7,275.2C167.0,278.4 157.9,280.9 148.6,282.8C139.4,284.7 129.7,285.9 120.1,286.4C110.4,286.9 100.6,286.7 90.9,285.9C81.2,285.0 71.4,283.4 61.9,281.1C52.4,278.8 43.0,275.8 34.1,272.2C25.1,268.5 16.4,264.2 8.3,259.3C0.2,254.4 -7.6,248.8 -14.6,242.7C-21.6,236.6 -28.1,229.9 -33.8,222.9C-39.5,215.8 -44.5,208.2 -48.7,200.4C-52.8,192.6 -56.2,184.3 -58.6,175.9C-61.1,167.5 -62.7,158.8 -63.3,150.1C-63.9,141.4 -63.6,132.4 -62.3,123.7C-61.1,115.0 -58.9,106.1 -55.8,97.6C-52.6,89.1 -48.6,80.6 -43.6,72.6C-38.7,64.6 -32.8,56.8 -26.2,49.5C-19.6,42.3 -12.0,35.3 -3.9,29.1C4.3,22.8 13.2,17.0 22.7,11.9C32.1,6.9 42.3,2.4 52.8,-1.3C63.2,-4.9 74.3,-7.9 85.5,-10.0C96.7,-12.2 108.3,-13.5 119.9,-14.1C131.5,-14.6 143.3,-14.2 155.0,-13.1C166.6,-11.9 178.3,-9.9 189.6,-7.1C200.9,-4.2 212.1,-0.5 222.7,3.9C233.3,8.4 243.7,13.7 253.3,19.6C262.9,25.5 272.0,32.3 280.3,39.6C288.6,46.9 296.2,54.9 302.8,63.3C309.5,71.8 315.4,80.8 320.2,90.2C325.0,99.5 328.8,109.3 331.6,119.3C334.4,129.3 336.1,139.6 336.7,149.9C337.4,160.2 336.9,170.7 335.3,181.0C333.7,191.3 331.0,201.7 327.2,211.7C323.4,221.7 318.5,231.7 312.6,241.0C306.7,250.4 299.6,259.6 291.8,268.0C283.9,276.5 275.0,284.6 265.3,291.9C255.7,299.1 245.1,305.9 234.0,311.7C222.9,317.6 204.6,324.4 198.7,326.9" stroke="rgba(45,209,196,0.40)" stroke-width="1.2"/>
<path d="M1080.0,520.0C1080.6,520.1 1082.4,520.2 1083.4,520.5C1084.4,520.8 1085.3,521.3 1086.1,521.8C1086.9,522.4 1087.6,523.1 1088.1,523.8C1088.7,524.6 1089.1,525.5 1089.4,526.4C1089.6,527.4 1089.7,528.4 1089.7,529.4C1089.6,530.5 1089.3,531.6 1088.9,532.6C1088.4,533.7 1087.8,534.8 1087.0,535.8C1086.2,536.8 1085.2,537.8 1084.0,538.7C1082.9,539.6 1081.5,540.4 1080.0,541.1C1078.5,541.9 1076.8,542.5 1075.1,542.9C1073.3,543.4 1071.4,543.7 1069.4,543.9C1067.4,544.1 1065.3,544.1 1063.2,543.9C1061.1,543.7 1058.9,543.3 1056.8,542.7C1054.6,542.1 1052.4,541.4 1050.3,540.4C1048.3,539.4 1046.2,538.3 1044.3,536.9C1042.4,535.6 1040.5,534.0 1038.9,532.3C1037.2,530.6 1035.7,528.6 1034.4,526.6C1033.1,524.5 1032.0,522.3 1031.2,520.0C1030.4,517.7 1029.8,515.2 1029.5,512.7C1029.2,510.2 1029.2,507.6 1029.5,504.9C1029.8,502.3 1030.4,499.6 1031.3,497.0C1032.2,494.3 1033.5,491.6 1035.0,489.1C1036.6,486.5 1038.5,484.0 1040.7,481.6C1042.9,479.2 1045.4,476.9 1048.2,474.9C1051.0,472.8 1054.1,470.8 1057.4,469.1C1060.7,467.4 1064.3,465.9 1068.1,464.7C1071.9,463.5 1075.9,462.5 1080.0,461.9C1084.1,461.2 1088.4,460.9 1092.7,460.8C1097.0,460.8 1101.5,461.1 1105.9,461.7C1110.3,462.3 1114.7,463.3 1119.0,464.6C1123.3,465.8 1127.6,467.5 1131.7,469.5C1135.8,471.4 1139.8,473.7 1143.5,476.3C1147.1,478.9 1150.7,481.9 1153.8,485.0C1156.9,488.2 1159.8,491.7 1162.3,495.4C1164.8,499.1 1166.9,503.1 1168.6,507.2C1170.3,511.3 1171.6,515.6 1172.3,520.0C1173.1,524.4 1173.4,528.9 1173.2,533.5C1173.1,538.0 1172.4,542.7 1171.2,547.2C1170.0,551.7 1168.3,556.3 1166.1,560.7C1163.9,565.1 1161.1,569.5 1157.9,573.6C1154.7,577.7 1151.0,581.7 1146.9,585.4C1142.8,589.0 1138.2,592.5 1133.2,595.5C1128.3,598.6 1122.9,601.4 1117.2,603.8C1111.6,606.1 1105.5,608.1 1099.3,609.7C1093.1,611.2 1086.6,612.3 1080.0,613.0C1073.5,613.6 1066.7,613.8 1059.9,613.4C1053.2,613.1 1046.3,612.3 1039.7,610.9C1033.0,609.6 1026.3,607.8 1019.9,605.4C1013.5,603.1 1007.1,600.3 1001.2,597.0C995.3,593.8 989.6,590.0 984.3,585.9C979.1,581.7 974.2,577.1 969.9,572.2C965.5,567.3 961.6,561.9 958.3,556.3C955.1,550.8 952.3,544.8 950.2,538.8C948.2,532.7 946.7,526.4 945.9,520.0C945.2,513.7 945.1,507.1 945.7,500.6C946.3,494.1 947.7,487.5 949.7,481.2C951.8,474.8 954.5,468.4 958.0,462.3C961.4,456.2 965.5,450.2 970.3,444.6C975.0,439.0 980.5,433.6 986.5,428.7C992.4,423.8 999.1,419.2 1006.1,415.1C1013.1,411.1 1020.8,407.5 1028.7,404.4C1036.6,401.4 1045.0,398.9 1053.5,397.1C1062.1,395.2 1071.0,393.9 1079.9,393.3C1088.9,392.7 1098.1,392.7 1107.2,393.4C1116.2,394.1 1125.4,395.5 1134.3,397.5C1143.2,399.5 1152.1,402.2 1160.6,405.5C1169.0,408.8 1177.3,412.7 1185.1,417.3C1192.8,421.8 1200.2,427.0 1206.9,432.6C1213.7,438.2 1219.9,444.5 1225.4,451.1C1230.9,457.7 1235.9,464.8 1239.9,472.2C1244.0,479.6 1247.4,487.4 1249.8,495.4C1252.3,503.3 1254.0,511.7 1254.7,519.9C1255.4,528.2 1255.3,536.8 1254.2,545.1C1253.2,553.5 1251.2,562.0 1248.4,570.2C1245.5,578.4 1241.7,586.6 1237.1,594.3C1232.5,602.1 1227.0,609.7 1220.7,616.7C1214.4,623.8 1207.3,630.6 1199.5,636.7C1191.7,642.8 1183.1,648.5 1174.1,653.5C1165.0,658.5 1155.2,662.9 1145.1,666.6C1135.0,670.2 1124.3,673.2 1113.5,675.4C1102.7,677.6 1091.3,679.0 1080.1,679.6C1068.8,680.2 1057.2,680.0 1045.9,679.0C1034.5,678.0 1023.1,676.1 1012.0,673.4C1000.9,670.8 989.9,667.3 979.4,663.0C969.0,658.7 958.7,653.6 949.3,647.9C939.8,642.1 930.7,635.6 922.5,628.5C914.3,621.4 906.6,613.6 900.0,605.3C893.3,597.1 887.4,588.2 882.6,579.0C877.8,569.8 873.8,560.1 870.9,550.3C868.1,540.5 866.2,530.3 865.5,520.1C864.8,509.9 865.1,499.5 866.6,489.2C868.0,479.0 870.6,468.7 874.3,458.7C877.9,448.7 882.7,438.8 888.5,429.4C894.3,420.1 901.2,410.9 908.9,402.4C916.7,393.9 925.5,385.8 935.0,378.4C944.5,371.1 955.0,364.3 966.1,358.4C977.1,352.5 989.0,347.2 1001.3,343.0C1013.5,338.7 1026.5,335.2 1039.6,332.7C1052.7,330.2 1066.3,328.6 1079.9,328.0C1093.4,327.4 1107.3,327.8 1120.9,329.1C1134.5,330.5 1148.2,332.9 1161.5,336.2C1174.7,339.5 1187.8,343.8 1200.2,349.0C1212.7,354.2 1224.8,360.4 1236.0,367.4C1247.2,374.3 1257.9,382.2 1267.6,390.8C1277.3,399.3 1286.2,408.7 1294.0,418.6C1301.8,428.4 1308.7,439.0 1314.3,450.0C1319.9,460.9 1324.4,472.4 1327.7,484.1C1330.9,495.7 1333.0,507.8 1333.7,519.9C1334.4,531.9 1333.8,544.3 1332.0,556.3C1330.1,568.4 1326.9,580.5 1322.5,592.2C1318.0,604.0 1312.3,615.6 1305.4,626.6C1298.5,637.5 1290.2,648.2 1281.0,658.2C1271.8,668.1 1261.4,677.5 1250.1,686.0C1238.8,694.6 1226.4,702.4 1213.4,709.3C1200.4,716.1 1186.4,722.1 1172.1,727.0C1157.7,732.0 1142.5,735.9 1127.2,738.7C1111.9,741.6 1096.0,743.3 1080.2,743.9C1064.4,744.5 1048.2,744.0 1032.4,742.3C1016.6,740.6 1000.6,737.7 985.3,733.8C970.0,729.8 954.8,724.7 940.4,718.6C926.0,712.4 912.0,705.1 899.1,697.0C886.2,688.9 873.8,679.6 862.7,669.7C851.6,659.7 841.4,648.8 832.5,637.4C823.6,625.9 815.8,613.6 809.4,600.9C803.0,588.3 797.9,574.9 794.3,561.5C790.6,548.0 788.4,534.0 787.7,520.2C787.0,506.3 787.7,492.1 790.0,478.2C792.2,464.4 796.0,450.4 801.2,437.0C806.4,423.5 817.9,404.2 821.2,397.7" stroke="rgba(140,110,246,0.34)" stroke-width="1.1"/>
<path d="M90.0,1200.0C90.6,1200.1 92.3,1200.2 93.3,1200.5C94.3,1200.8 95.2,1201.2 96.0,1201.8C96.8,1202.3 97.5,1203.0 98.0,1203.8C98.6,1204.6 99.0,1205.4 99.2,1206.4C99.5,1207.3 99.6,1208.3 99.5,1209.3C99.4,1210.3 99.2,1211.4 98.8,1212.4C98.3,1213.5 97.7,1214.5 96.9,1215.5C96.1,1216.5 95.1,1217.5 94.0,1218.4C92.8,1219.3 91.5,1220.1 90.0,1220.8C88.5,1221.5 86.9,1222.2 85.1,1222.6C83.4,1223.1 81.5,1223.4 79.5,1223.6C77.6,1223.7 75.5,1223.7 73.4,1223.5C71.4,1223.3 69.2,1223.0 67.1,1222.4C65.0,1221.8 62.8,1221.1 60.8,1220.1C58.7,1219.2 56.7,1218.0 54.8,1216.7C52.9,1215.3 51.1,1213.8 49.5,1212.1C47.8,1210.4 46.3,1208.5 45.1,1206.5C43.8,1204.5 42.7,1202.3 41.9,1200.0C41.1,1197.7 40.5,1195.3 40.2,1192.8C39.9,1190.3 39.9,1187.7 40.2,1185.1C40.5,1182.6 41.1,1179.9 42.0,1177.3C42.9,1174.7 44.1,1172.0 45.7,1169.5C47.2,1167.0 49.1,1164.5 51.3,1162.2C53.4,1159.8 55.9,1157.6 58.7,1155.5C61.4,1153.5 64.5,1151.5 67.7,1149.9C71.0,1148.2 74.6,1146.7 78.3,1145.5C82.0,1144.3 85.9,1143.4 90.0,1142.7C94.0,1142.1 98.3,1141.7 102.5,1141.7C106.8,1141.7 111.2,1141.9 115.5,1142.5C119.8,1143.1 124.2,1144.1 128.5,1145.4C132.7,1146.6 136.9,1148.3 141.0,1150.2C145.0,1152.1 148.9,1154.4 152.5,1157.0C156.2,1159.5 159.6,1162.4 162.7,1165.6C165.8,1168.7 168.7,1172.1 171.1,1175.8C173.5,1179.4 175.7,1183.3 177.3,1187.4C179.0,1191.4 180.2,1195.7 181.0,1200.0C181.8,1204.3 182.1,1208.8 181.9,1213.3C181.7,1217.7 181.0,1222.3 179.9,1226.8C178.7,1231.3 177.0,1235.8 174.8,1240.1C172.7,1244.5 170.0,1248.8 166.8,1252.8C163.7,1256.9 160.0,1260.8 155.9,1264.4C151.9,1268.0 147.3,1271.4 142.4,1274.5C137.6,1277.5 132.2,1280.2 126.7,1282.6C121.1,1284.9 115.1,1286.9 109.0,1288.4C102.9,1289.9 96.5,1291.0 90.0,1291.6C83.6,1292.2 76.9,1292.4 70.2,1292.1C63.6,1291.7 56.8,1290.9 50.3,1289.6C43.7,1288.3 37.1,1286.5 30.7,1284.2C24.4,1281.9 18.2,1279.1 12.4,1275.9C6.5,1272.7 0.9,1269.0 -4.3,1264.9C-9.4,1260.8 -14.3,1256.3 -18.5,1251.4C-22.8,1246.6 -26.7,1241.3 -29.9,1235.8C-33.1,1230.3 -35.9,1224.5 -37.9,1218.5C-39.9,1212.6 -41.4,1206.3 -42.1,1200.0C-42.9,1193.8 -43.0,1187.3 -42.3,1180.9C-41.7,1174.5 -40.4,1168.0 -38.4,1161.7C-36.4,1155.4 -33.7,1149.1 -30.3,1143.1C-26.9,1137.1 -22.8,1131.2 -18.1,1125.7C-13.4,1120.1 -8.1,1114.8 -2.2,1110.0C3.7,1105.1 10.2,1100.6 17.2,1096.6C24.1,1092.7 31.6,1089.1 39.4,1086.1C47.2,1083.2 55.5,1080.7 63.9,1078.8C72.3,1077.0 81.1,1075.7 90.0,1075.1C98.8,1074.5 107.8,1074.6 116.8,1075.2C125.7,1075.9 134.8,1077.3 143.5,1079.2C152.3,1081.2 161.1,1083.9 169.4,1087.1C177.7,1090.4 185.9,1094.3 193.5,1098.8C201.1,1103.2 208.5,1108.3 215.1,1113.9C221.7,1119.4 227.9,1125.6 233.3,1132.1C238.8,1138.6 243.6,1145.6 247.6,1152.9C251.6,1160.2 254.9,1167.9 257.4,1175.7C259.8,1183.6 261.4,1191.8 262.2,1199.9C262.9,1208.1 262.8,1216.5 261.7,1224.8C260.7,1233.0 258.7,1241.4 255.9,1249.5C253.1,1257.5 249.4,1265.6 244.8,1273.2C240.3,1280.9 234.8,1288.4 228.7,1295.3C222.5,1302.3 215.4,1309.0 207.8,1315.0C200.1,1321.0 191.7,1326.7 182.7,1331.6C173.8,1336.5 164.2,1340.9 154.2,1344.5C144.2,1348.1 133.7,1351.0 123.0,1353.2C112.3,1355.3 101.2,1356.7 90.1,1357.3C79.0,1357.9 67.6,1357.7 56.4,1356.7C45.2,1355.7 33.9,1353.9 23.0,1351.2C12.0,1348.6 1.2,1345.1 -9.1,1340.9C-19.4,1336.7 -29.5,1331.7 -38.9,1326.0C-48.2,1320.4 -57.2,1313.9 -65.2,1306.9C-73.3,1299.9 -80.9,1292.2 -87.4,1284.1C-94.0,1275.9 -99.8,1267.2 -104.5,1258.1C-109.3,1249.1 -113.2,1239.5 -116.0,1229.9C-118.8,1220.2 -120.7,1210.1 -121.4,1200.1C-122.1,1190.0 -121.8,1179.8 -120.3,1169.7C-118.9,1159.6 -116.3,1149.4 -112.7,1139.6C-109.1,1129.8 -104.4,1120.0 -98.7,1110.7C-93.0,1101.5 -86.3,1092.5 -78.6,1084.1C-71.0,1075.7 -62.3,1067.7 -52.9,1060.5C-43.5,1053.3 -33.1,1046.6 -22.3,1040.7C-11.4,1034.9 0.4,1029.7 12.4,1025.5C24.5,1021.3 37.3,1017.9 50.2,1015.4C63.1,1012.9 76.5,1011.4 89.9,1010.8C103.2,1010.2 116.9,1010.6 130.3,1011.9C143.7,1013.2 157.3,1015.6 170.3,1018.8C183.3,1022.1 196.2,1026.4 208.5,1031.5C220.7,1036.6 232.7,1042.7 243.7,1049.6C254.8,1056.5 265.4,1064.2 274.9,1072.6C284.4,1081.0 293.2,1090.3 300.9,1100.0C308.6,1109.8 315.3,1120.2 320.9,1131.0C326.4,1141.7 330.9,1153.1 334.1,1164.6C337.3,1176.1 339.0,1194.0 340.0,1199.9" stroke="rgba(51,185,106,0.36)" stroke-width="1.2"/>
<path d="M1120.0,1420.0C1120.6,1420.1 1122.3,1420.2 1123.3,1420.5C1124.3,1420.8 1125.2,1421.2 1126.0,1421.8C1126.8,1422.3 1127.5,1423.0 1128.0,1423.8C1128.5,1424.5 1129.0,1425.4 1129.2,1426.3C1129.5,1427.3 1129.6,1428.3 1129.5,1429.3C1129.4,1430.3 1129.2,1431.4 1128.7,1432.4C1128.3,1433.4 1127.7,1434.5 1126.9,1435.5C1126.1,1436.5 1125.1,1437.5 1124.0,1438.4C1122.8,1439.3 1121.5,1440.1 1120.0,1440.8C1118.5,1441.5 1116.9,1442.1 1115.1,1442.6C1113.4,1443.0 1111.5,1443.4 1109.6,1443.5C1107.6,1443.7 1105.5,1443.7 1103.5,1443.5C1101.4,1443.3 1099.2,1442.9 1097.1,1442.4C1095.0,1441.8 1092.9,1441.0 1090.8,1440.1C1088.8,1439.1 1086.7,1438.0 1084.9,1436.6C1083.0,1435.3 1081.1,1433.8 1079.5,1432.1C1077.9,1430.4 1076.4,1428.5 1075.2,1426.5C1073.9,1424.5 1072.8,1422.3 1072.0,1420.0C1071.2,1417.7 1070.6,1415.3 1070.3,1412.8C1070.0,1410.3 1070.0,1407.8 1070.3,1405.2C1070.6,1402.6 1071.2,1399.9 1072.1,1397.3C1073.0,1394.7 1074.2,1392.1 1075.8,1389.6C1077.3,1387.1 1079.2,1384.6 1081.3,1382.2C1083.5,1379.9 1086.0,1377.6 1088.7,1375.6C1091.5,1373.5 1094.5,1371.6 1097.8,1370.0C1101.0,1368.3 1104.6,1366.8 1108.3,1365.6C1112.0,1364.4 1116.0,1363.5 1120.0,1362.8C1124.0,1362.2 1128.3,1361.8 1132.5,1361.8C1136.7,1361.8 1141.1,1362.0 1145.4,1362.6C1149.8,1363.2 1154.2,1364.2 1158.4,1365.5C1162.6,1366.7 1166.9,1368.3 1170.9,1370.3C1174.9,1372.2 1178.8,1374.5 1182.4,1377.0C1186.0,1379.6 1189.5,1382.5 1192.6,1385.6C1195.7,1388.7 1198.5,1392.2 1201.0,1395.8C1203.4,1399.4 1205.5,1403.4 1207.2,1407.4C1208.8,1411.4 1210.1,1415.7 1210.8,1420.0C1211.6,1424.3 1211.9,1428.8 1211.7,1433.2C1211.5,1437.7 1210.9,1442.3 1209.7,1446.8C1208.5,1451.2 1206.8,1455.7 1204.7,1460.1C1202.5,1464.4 1199.8,1468.7 1196.7,1472.7C1193.5,1476.8 1189.9,1480.7 1185.8,1484.3C1181.8,1487.9 1177.2,1491.3 1172.4,1494.3C1167.5,1497.3 1162.2,1500.1 1156.6,1502.4C1151.0,1504.7 1145.1,1506.7 1139.0,1508.2C1132.9,1509.7 1126.5,1510.8 1120.0,1511.4C1113.6,1512.1 1106.9,1512.2 1100.3,1511.9C1093.6,1511.6 1086.9,1510.8 1080.3,1509.4C1073.8,1508.1 1067.2,1506.3 1060.9,1504.1C1054.5,1501.8 1048.3,1499.0 1042.5,1495.8C1036.7,1492.6 1031.0,1488.9 1025.9,1484.8C1020.8,1480.7 1015.9,1476.2 1011.7,1471.3C1007.4,1466.5 1003.5,1461.2 1000.3,1455.8C997.1,1450.3 994.4,1444.4 992.3,1438.5C990.3,1432.5 988.9,1426.3 988.1,1420.0C987.4,1413.8 987.3,1407.3 987.9,1400.9C988.5,1394.6 989.8,1388.1 991.8,1381.8C993.8,1375.5 996.6,1369.2 999.9,1363.2C1003.3,1357.2 1007.4,1351.3 1012.1,1345.8C1016.8,1340.3 1022.1,1335.0 1028.0,1330.1C1033.9,1325.3 1040.4,1320.8 1047.3,1316.8C1054.2,1312.9 1061.7,1309.3 1069.5,1306.3C1077.3,1303.4 1085.5,1300.9 1093.9,1299.1C1102.4,1297.2 1111.2,1296.0 1120.0,1295.4C1128.7,1294.8 1137.8,1294.8 1146.7,1295.5C1155.6,1296.2 1164.7,1297.5 1173.4,1299.5C1182.2,1301.4 1191.0,1304.1 1199.3,1307.3C1207.6,1310.6 1215.7,1314.5 1223.3,1318.9C1230.9,1323.4 1238.2,1328.5 1244.9,1334.0C1251.5,1339.6 1257.7,1345.7 1263.1,1352.2C1268.5,1358.7 1273.3,1365.7 1277.3,1373.0C1281.3,1380.3 1284.6,1388.0 1287.1,1395.8C1289.5,1403.6 1291.1,1411.8 1291.8,1419.9C1292.6,1428.1 1292.4,1436.5 1291.4,1444.7C1290.4,1453.0 1288.4,1461.3 1285.6,1469.4C1282.8,1477.4 1279.1,1485.5 1274.6,1493.1C1270.0,1500.7 1264.6,1508.2 1258.4,1515.2C1252.2,1522.1 1245.2,1528.8 1237.6,1534.8C1229.9,1540.8 1221.5,1546.4 1212.6,1551.3C1203.6,1556.2 1194.0,1560.6 1184.1,1564.2C1174.2,1567.8 1163.6,1570.7 1153.0,1572.9C1142.3,1575.0 1131.2,1576.5 1120.1,1577.0C1109.0,1577.6 1097.6,1577.4 1086.4,1576.4C1075.3,1575.4 1064.0,1573.6 1053.1,1570.9C1042.2,1568.3 1031.3,1564.9 1021.1,1560.7C1010.8,1556.5 1000.7,1551.5 991.4,1545.8C982.0,1540.1 973.1,1533.7 965.0,1526.7C957.0,1519.7 949.5,1512.0 942.9,1503.9C936.4,1495.8 930.6,1487.1 925.8,1478.0C921.0,1469.0 917.1,1459.5 914.3,1449.8C911.5,1440.2 909.7,1430.1 909.0,1420.1C908.3,1410.1 908.6,1399.8 910.1,1389.7C911.5,1379.7 914.0,1369.5 917.6,1359.7C921.2,1349.9 925.9,1340.1 931.6,1330.9C937.3,1321.7 944.1,1312.7 951.7,1304.3C959.3,1295.9 968.0,1288.0 977.4,1280.8C986.7,1273.5 997.1,1266.9 1007.9,1261.0C1018.8,1255.2 1030.5,1250.1 1042.6,1245.8C1054.6,1241.6 1067.4,1238.2 1080.3,1235.7C1093.1,1233.3 1106.6,1231.7 1119.9,1231.1C1133.2,1230.5 1146.9,1230.9 1160.3,1232.2C1173.6,1233.6 1187.1,1235.9 1200.1,1239.2C1213.1,1242.4 1226.1,1246.7 1238.3,1251.8C1250.5,1256.9 1262.4,1263.0 1273.5,1269.9C1284.5,1276.7 1295.0,1284.5 1304.6,1292.9C1314.1,1301.3 1322.9,1310.5 1330.5,1320.2C1338.2,1329.9 1344.9,1340.4 1350.5,1351.1C1356.0,1361.8 1360.5,1373.2 1363.6,1384.7C1366.8,1396.1 1368.8,1408.0 1369.5,1419.9C1370.3,1431.7 1369.7,1443.9 1367.9,1455.7C1366.0,1467.6 1362.9,1479.6 1358.5,1491.1C1354.2,1502.6 1348.5,1514.0 1341.7,1524.8C1334.9,1535.6 1326.8,1546.2 1317.8,1555.9C1308.7,1565.7 1298.4,1575.0 1287.3,1583.3C1276.3,1591.7 1264.1,1599.5 1251.3,1606.2C1238.5,1612.9 1224.7,1618.8 1210.6,1623.7C1196.4,1628.5 1181.5,1632.4 1166.4,1635.2C1151.4,1638.0 1135.7,1639.7 1120.2,1640.3C1104.6,1640.8 1088.7,1640.3 1073.2,1638.6C1057.6,1637.0 1041.9,1634.2 1026.8,1630.3C1011.8,1626.4 996.8,1621.3 982.7,1615.3C968.5,1609.3 954.8,1602.1 942.0,1594.1C929.3,1586.1 912.2,1571.7 906.3,1567.3" stroke="rgba(96,150,255,0.30)" stroke-width="1.1"/></g></svg>